<mxfile host="app.diagrams.net" agent="Mozilla/5.0 (Windows NT 10.0; Win64; x64) AppleWebKit/537.36 (KHTML, like Gecko) Chrome/140.0.0.0 Safari/537.36" version="28.2.5">
  <diagram name="Страница — 1" id="ftTf1740qBRhjsC5UyiH">
    <mxGraphModel dx="891" dy="776" grid="1" gridSize="10" guides="1" tooltips="1" connect="1" arrows="1" fold="1" page="1" pageScale="1" pageWidth="827" pageHeight="1169" math="0" shadow="0">
      <root>
        <mxCell id="0" />
        <mxCell id="1" parent="0" />
        <mxCell id="VKB1BWsQKKEYduPVDShD-2" value="Рост прибыли" style="rounded=0;whiteSpace=wrap;html=1;" parent="1" vertex="1">
          <mxGeometry x="390" y="40" width="240" height="100" as="geometry" />
        </mxCell>
        <mxCell id="GQeKqEb6NChhPRtF_hle-7" value="" style="edgeStyle=orthogonalEdgeStyle;rounded=0;orthogonalLoop=1;jettySize=auto;html=1;" edge="1" parent="1" source="VKB1BWsQKKEYduPVDShD-3" target="VKB1BWsQKKEYduPVDShD-12">
          <mxGeometry relative="1" as="geometry" />
        </mxCell>
        <mxCell id="VKB1BWsQKKEYduPVDShD-3" value="Внедрить систему УСГП" style="rounded=0;whiteSpace=wrap;html=1;" parent="1" vertex="1">
          <mxGeometry x="210" y="300" width="220" height="100" as="geometry" />
        </mxCell>
        <mxCell id="GQeKqEb6NChhPRtF_hle-6" style="edgeStyle=orthogonalEdgeStyle;rounded=0;orthogonalLoop=1;jettySize=auto;html=1;entryX=0.5;entryY=0;entryDx=0;entryDy=0;" edge="1" parent="1" source="VKB1BWsQKKEYduPVDShD-4" target="VKB1BWsQKKEYduPVDShD-3">
          <mxGeometry relative="1" as="geometry">
            <Array as="points">
              <mxPoint x="414" y="280" />
              <mxPoint x="320" y="280" />
            </Array>
          </mxGeometry>
        </mxCell>
        <mxCell id="VKB1BWsQKKEYduPVDShD-4" value="Рационально использовать складское пространство" style="rounded=0;whiteSpace=wrap;html=1;" parent="1" vertex="1">
          <mxGeometry x="328.5" y="180" width="170" height="90" as="geometry" />
        </mxCell>
        <mxCell id="VKB1BWsQKKEYduPVDShD-12" value="Диверсификация доходов" style="rounded=0;whiteSpace=wrap;html=1;" parent="1" vertex="1">
          <mxGeometry x="250" y="430" width="140" height="90" as="geometry" />
        </mxCell>
        <mxCell id="GQeKqEb6NChhPRtF_hle-5" style="edgeStyle=orthogonalEdgeStyle;rounded=0;orthogonalLoop=1;jettySize=auto;html=1;entryX=0.5;entryY=0;entryDx=0;entryDy=0;" edge="1" parent="1" source="VKB1BWsQKKEYduPVDShD-14" target="VKB1BWsQKKEYduPVDShD-3">
          <mxGeometry relative="1" as="geometry">
            <Array as="points">
              <mxPoint x="210" y="280" />
              <mxPoint x="320" y="280" />
            </Array>
          </mxGeometry>
        </mxCell>
        <mxCell id="VKB1BWsQKKEYduPVDShD-14" value="Увеличить скорость сборки" style="rounded=0;whiteSpace=wrap;html=1;" parent="1" vertex="1">
          <mxGeometry x="120" y="180" width="180" height="90" as="geometry" />
        </mxCell>
        <mxCell id="GQeKqEb6NChhPRtF_hle-10" value="" style="edgeStyle=orthogonalEdgeStyle;rounded=0;orthogonalLoop=1;jettySize=auto;html=1;" edge="1" parent="1" source="VKB1BWsQKKEYduPVDShD-16" target="I6DV6D3wKqFu1foUBXRI-30">
          <mxGeometry relative="1" as="geometry" />
        </mxCell>
        <mxCell id="VKB1BWsQKKEYduPVDShD-16" value="&lt;div style=&quot;&quot;&gt;Внедрить систему двойной проверки продукции&lt;/div&gt;" style="rounded=0;whiteSpace=wrap;html=1;align=center;" parent="1" vertex="1">
          <mxGeometry x="459" y="295" width="257" height="110" as="geometry" />
        </mxCell>
        <mxCell id="GQeKqEb6NChhPRtF_hle-8" value="" style="edgeStyle=orthogonalEdgeStyle;rounded=0;orthogonalLoop=1;jettySize=auto;html=1;" edge="1" parent="1" source="VKB1BWsQKKEYduPVDShD-18" target="VKB1BWsQKKEYduPVDShD-16">
          <mxGeometry relative="1" as="geometry" />
        </mxCell>
        <mxCell id="VKB1BWsQKKEYduPVDShD-18" value="Повысить точность" style="rounded=0;whiteSpace=wrap;html=1;" parent="1" vertex="1">
          <mxGeometry x="520" y="180" width="135" height="90" as="geometry" />
        </mxCell>
        <mxCell id="VKB1BWsQKKEYduPVDShD-19" value="Снижение финансовых потерь" style="rounded=0;whiteSpace=wrap;html=1;" parent="1" vertex="1">
          <mxGeometry x="782.5" y="430" width="155" height="85" as="geometry" />
        </mxCell>
        <mxCell id="GQeKqEb6NChhPRtF_hle-11" value="" style="edgeStyle=orthogonalEdgeStyle;rounded=0;orthogonalLoop=1;jettySize=auto;html=1;" edge="1" parent="1" source="VKB1BWsQKKEYduPVDShD-22" target="VKB1BWsQKKEYduPVDShD-19">
          <mxGeometry relative="1" as="geometry" />
        </mxCell>
        <mxCell id="VKB1BWsQKKEYduPVDShD-22" value="Ускорить процесс формирования отчетности" style="rounded=0;whiteSpace=wrap;html=1;" parent="1" vertex="1">
          <mxGeometry x="730" y="295" width="260" height="110" as="geometry" />
        </mxCell>
        <mxCell id="I6DV6D3wKqFu1foUBXRI-21" value="" style="edgeStyle=elbowEdgeStyle;elbow=vertical;endArrow=classic;html=1;curved=0;rounded=0;endSize=8;startSize=8;fontSize=12;exitX=0.5;exitY=1;exitDx=0;exitDy=0;entryX=0.5;entryY=0;entryDx=0;entryDy=0;" parent="1" source="VKB1BWsQKKEYduPVDShD-2" target="VKB1BWsQKKEYduPVDShD-14" edge="1">
          <mxGeometry width="50" height="50" relative="1" as="geometry">
            <mxPoint x="510" y="180" as="sourcePoint" />
            <mxPoint x="210" y="180" as="targetPoint" />
            <Array as="points">
              <mxPoint x="580" y="160" />
            </Array>
          </mxGeometry>
        </mxCell>
        <mxCell id="I6DV6D3wKqFu1foUBXRI-23" value="" style="edgeStyle=segmentEdgeStyle;endArrow=classic;html=1;curved=0;rounded=0;endSize=8;startSize=8;fontSize=12;" parent="1" target="I6DV6D3wKqFu1foUBXRI-32" edge="1">
          <mxGeometry width="50" height="50" relative="1" as="geometry">
            <mxPoint x="510" y="160" as="sourcePoint" />
            <mxPoint x="830" y="180" as="targetPoint" />
          </mxGeometry>
        </mxCell>
        <mxCell id="I6DV6D3wKqFu1foUBXRI-30" value="Снижение количества брака" style="rounded=0;whiteSpace=wrap;html=1;" parent="1" vertex="1">
          <mxGeometry x="513.75" y="435" width="147.5" height="85" as="geometry" />
        </mxCell>
        <mxCell id="GQeKqEb6NChhPRtF_hle-9" value="" style="edgeStyle=orthogonalEdgeStyle;rounded=0;orthogonalLoop=1;jettySize=auto;html=1;" edge="1" parent="1" source="I6DV6D3wKqFu1foUBXRI-32" target="VKB1BWsQKKEYduPVDShD-22">
          <mxGeometry relative="1" as="geometry">
            <Array as="points">
              <mxPoint x="770" y="280" />
              <mxPoint x="860" y="280" />
            </Array>
          </mxGeometry>
        </mxCell>
        <mxCell id="I6DV6D3wKqFu1foUBXRI-32" value="Сократить время на принятие решений" style="rounded=0;whiteSpace=wrap;html=1;" parent="1" vertex="1">
          <mxGeometry x="680" y="180" width="180" height="90" as="geometry" />
        </mxCell>
        <mxCell id="GQeKqEb6NChhPRtF_hle-1" value="" style="edgeStyle=segmentEdgeStyle;endArrow=classic;html=1;curved=0;rounded=0;endSize=8;startSize=8;exitX=0.5;exitY=1;exitDx=0;exitDy=0;entryX=0.5;entryY=0;entryDx=0;entryDy=0;" edge="1" parent="1" source="VKB1BWsQKKEYduPVDShD-2" target="VKB1BWsQKKEYduPVDShD-18">
          <mxGeometry width="50" height="50" relative="1" as="geometry">
            <mxPoint x="800" y="430" as="sourcePoint" />
            <mxPoint x="850" y="380" as="targetPoint" />
            <Array as="points">
              <mxPoint x="510" y="160" />
              <mxPoint x="588" y="160" />
            </Array>
          </mxGeometry>
        </mxCell>
        <mxCell id="GQeKqEb6NChhPRtF_hle-2" value="" style="edgeStyle=segmentEdgeStyle;endArrow=classic;html=1;curved=0;rounded=0;endSize=8;startSize=8;exitX=0.5;exitY=1;exitDx=0;exitDy=0;entryX=0.5;entryY=0;entryDx=0;entryDy=0;" edge="1" parent="1" source="VKB1BWsQKKEYduPVDShD-2" target="VKB1BWsQKKEYduPVDShD-4">
          <mxGeometry width="50" height="50" relative="1" as="geometry">
            <mxPoint x="460" y="360" as="sourcePoint" />
            <mxPoint x="510" y="310" as="targetPoint" />
            <Array as="points">
              <mxPoint x="510" y="160" />
              <mxPoint x="414" y="160" />
            </Array>
          </mxGeometry>
        </mxCell>
      </root>
    </mxGraphModel>
  </diagram>
</mxfile>
